<?xml version="1.0" standalone="no"?><!DOCTYPE svg PUBLIC "-//W3C//DTD SVG 1.1//EN" "http://www.w3.org/Graphics/SVG/1.1/DTD/svg11.dtd"><svg t="1728988464819" class="icon" viewBox="0 0 2414 1024" version="1.1" xmlns="http://www.w3.org/2000/svg" p-id="15393" xmlns:xlink="http://www.w3.org/1999/xlink" width="603.5" height="256"><path d="M742.240847 143.119503c-41.026019-11.081741-78.515312-7.780797-115.061478 10.610177-21.220355 10.610177-41.026019 24.285517-56.35183 42.676491-5.894543 7.073452-11.081741 7.073452-12.732213-2.122036-1.886254-9.431269-6.83767-17.447847-10.138614-26.407552-15.09003-39.139765-39.611329-71.677642-71.913424-97.142068-48.571034-37.960857-104.215519-55.880267-166.933456-50.693069-34.188349 2.829381-64.604191 14.854248-93.133779 31.358968-15.561593 8.959705-29.944278 21.220355-43.619617 33.952568-37.725075 35.131476-60.831683 78.27953-71.677643 127.322127-10.845959 49.278379-8.723924 98.79254 9.431269 146.892011 15.561593 40.790237 37.960857 77.807967 71.206079 105.630209 44.798526 37.489293 96.670504 59.652775 154.672807 54.93714 42.440709 0.707345 82.287819-3.065162 122.13493-6.366106 63.661064-5.187198 127.322128-6.366106 190.747409-12.024868 34.424131-3.065162 69.084043-2.593599 102.565047-14.146903 28.058024-9.66705 52.815105-24.049735 72.856551-45.034308 33.245222-34.895694 46.213217-77.807967 46.68478-126.143219 0.707345-66.254663-48.571034-151.843426-128.736818-173.299562z m-258.180981 169.055491c-8.016578 31.830532-23.578172 57.766521-51.164632 75.685932-47.863689 31.358968-82.995165 29.708496-124.492747 1.178908-37.960857-25.935989-54.93714-66.490444-55.172922-113.646788 0.943127-45.741653 16.033157-86.296109 53.758231-115.061478 43.619618-33.245222 89.832834-36.074603 133.688234 0.471563 47.627907 39.84711 58.238084 92.190652 43.383836 151.371863z m285.531661 77.100622c-38.903983 31.123187-87.946581 19.098319-110.817408-24.521299-20.984573-40.082892-11.317522-99.028321 25.464426-126.143219 28.293806-20.748791 64.604191-20.277228 90.775961 5.187198 20.041446 19.334101 27.350679 43.383836 27.586461 65.311536-0.707345 34.659913-9.902832 61.539028-33.00944 80.165784z" fill="#FE7D00" p-id="15394"></path><path d="M839.147133 766.997928c-0.707345 21.691918 0.707345 46.448998-0.943127 71.44186-1.886254 30.887405-17.683629 44.091181-44.798526 51.871978-43.383836 12.496431-87.710799 21.9277-132.273544 29.708496-16.033157 2.829381-31.830532 8.25236-47.863688 11.317523-41.969146 8.488142-82.995165 24.992862-126.850564 16.268938-22.163481-4.479853-44.091181-11.081741-65.075754-20.277227-7.780797-3.300944-8.25236-8.016578-3.772508-14.382685 10.138614-13.911121 19.569883-28.529588 30.887405-41.261801 21.220355-23.578172 35.367258-48.806816 31.59475-81.816256-2.122035-19.334101 2.122035-39.375547-6.130324-58.473866-6.130325-14.382685-19.098319-21.691918-29.001152-32.066313-31.358968-32.066314-63.425282-63.1895-95.255814-94.548469-8.016578-8.016578-10.610177-17.212065-7.545015-28.058024 2.829381-10.374396 10.610177-13.203776 20.51301-14.382685 30.651623-4.008289 61.067465-8.016578 91.95487-9.195487 22.870827-0.943127 45.505872-4.479853 68.376698-7.073452 24.285517-2.829381 48.806816-3.065162 73.328114-5.187198 34.659913-3.065162 69.319825-9.902832 103.979738-5.422979 34.895694 4.479853 70.02717 5.42298 104.687082 12.260649 19.098319 3.772507 30.18006 15.797375 33.245222 35.131476 2.357817 14.618466 1.650472 29.236933 0 43.8554-0.707345 6.83767-5.658761 10.610177-11.789085 11.789086-18.155192 3.536726-36.546166 6.601888-54.701359 10.138613-29.001151 5.42298-58.002303 9.431269-86.53189 17.447848-11.081741 3.065162-22.399263 1.886254-33.716786 5.658761-16.976284 5.894543-27.114898 16.976284-28.529588 33.716785-3.300944 37.489293-3.536726 75.214368 0 112.703661 1.178909 12.732213 9.66705 21.220355 21.456136 22.163482 25.700207 2.122035 49.985724-5.658761 74.507023-11.789086 8.488142-2.122035 11.789086-26.171771 5.894543-33.00944-4.008289-4.479853-8.723924-2.593599-13.203776-1.414691-12.260649 2.593599-24.049735 6.83767-36.781948 8.016579-6.83767 0.707345-11.081741-0.471563-11.789086-7.780797-1.886254-24.049735-1.886254-48.335252-0.707345-72.384987 0.235782-5.658761 4.244071-9.902832 9.66705-10.610178 26.171771-3.772507 51.164633-12.024868 77.336404-15.325811 19.569883-2.593599 38.903983-7.780797 58.473866-12.26065 8.25236-1.886254 16.50472-1.886254 24.75708-1.650472 7.780797 0.235782 6.601888 6.601888 6.83767 11.553304 0 23.106608-0.235782 46.448998-0.235782 73.328115z" fill="#FE7E00" p-id="15395"></path><path d="M1929.401796 698.62123c46.448998 0 92.897997-0.235782 139.111213 0.235781 8.723924 0 11.553304-1.886254 11.317523-11.08174-0.707345-30.887405-0.471563-61.77481 0-92.662216 0.235782-8.959705-2.829381-11.317522-11.553304-11.317522-74.978586 0.235782-149.957172 0-224.935759 0-16.268939 0-22.870827-6.601888-23.106608-22.870827-0.235782-25.700207-0.235782-26.171771 24.75708-26.17177 72.620769-0.235782 145.241538-0.235782 217.626525-0.235782 16.740502 0 16.740502 0.235782 16.740502-16.740502 0-29.708496-0.235782-59.416993 0-89.125489 0-9.66705-3.065162-13.203776-13.203776-12.732213-69.319825 4.008289-138.63965 7.309233-207.723693 11.081741-20.748791 1.178909-27.822243-3.536726-30.415842-23.813954-4.715634-37.01773-9.431269-29.944278 26.407553-31.830532 71.913424-3.772507 144.06263-6.366106 215.976053-12.496431 48.806816-4.244071 97.377849-10.610177 146.184665-15.561593 49.749942-4.951416 98.556758-15.09003 148.070919-20.277228 29.472715-3.300944 37.960857 3.772507 38.43242 33.952568 0.235782 16.976284 0.235782 16.50472-17.212066 18.155192-18.626756 1.650472-36.310385 7.780797-54.93714 9.66705-38.196638 3.772507-75.921713 10.845959-114.118351 14.146903-17.683629 1.41469-35.131476 4.951416-52.815105 7.073452-7.073452 0.943127-9.195487 3.772507-9.195487 10.845959 0.235782 35.367258 0.235782 70.498734 0 105.865991 0 8.959705 2.122035 12.496431 12.260649 12.260649 71.44186-0.471563 142.883721-0.471563 214.0898-0.707345 20.277228 0 21.9277 1.41469 21.456136 21.456137-0.235782 9.431269 4.479853 21.691918-1.886253 27.114897-5.187198 4.479853-17.212065 1.650472-26.407553 1.650472-69.319825 0-138.875432 0-208.195256-0.235782-8.959705 0-11.553304 2.357817-11.553305 11.081741 0.471563 30.887405 0.707345 61.77481 0.235782 92.662215-0.235782 8.959705 2.593599 11.081741 11.317523 11.081741 74.978586-0.471563 149.957172 0 224.935758-0.471563 9.195487 0 12.732213 1.886254 11.789086 11.553304-0.943127 11.081741-0.943127 22.163481 0 33.245222 0.707345 9.66705-1.886254 12.732213-12.024867 12.496431-65.783099-0.471563-131.566198-0.235782-197.58508-0.471563-8.723924 0-17.447847 0.707345-26.171771-0.235782-10.138614-0.943127-12.967994 3.300944-12.732212 12.732213 0.471563 37.253511-0.235782 74.507023 0.707345 111.760534 0.943127 33.481004-24.285517 73.799678-70.734515 71.913424-28.058024-1.178909-56.351831-0.235782-84.409855-0.235782-20.041446-0.235782-23.578172-2.829381-29.236933-21.9277-1.650472-5.187198-2.357817-10.845959-3.300944-16.268938-3.065162-14.618466-3.065162-14.618466 12.260649-14.618467 23.813953 0 47.627907-0.943127 71.44186 0.235782 16.740502 0.707345 28.058024-11.317522 28.058025-26.643334 0-19.805664 0.235782-39.611329 0.235781-59.416993v-39.139765c-0.235782-22.163481 1.41469-17.919411-17.447847-17.919411-86.060327-0.235782-172.120654 0-258.180981 0-6.83767 0-13.203776 0.235782-18.862537-4.951416-5.187198-4.951416-8.723924-9.66705-8.016578-17.212065 1.178909-10.845959-4.479853-25.228644 2.122035-32.066314 6.83767-7.073452 20.984573-2.122035 32.066314-2.357817 39.84711-0.707345 78.986875-0.471563 118.362422-0.471563zM1697.628367 647.692379c-1.41469-8.016578-7.780797-13.439558-17.447847-13.203777-9.902832 0.235782-19.805664-0.471563-29.708496 0-8.488142 0.471563-11.553304-2.357817-11.317523-11.553304 0.471563-51.400414 0.235782-103.036611 0.235782-154.437025 0-4.008289 0.471563-8.25236-0.943127-11.789086-13.911121-33.952567-35.131476-51.400414-74.035459-50.693069-31.59475 0.707345-63.425282-0.235782-95.255814 0.471563-11.081741 0.235782-13.203776-4.008289-12.967994-13.911121 0.707345-25.228644 0.235782-50.693069 0.707345-76.157495 0.235782-6.601888-2.122035-9.431269-8.488142-9.431269-15.797375 0-31.830532-0.707345-47.627907 0.235782-15.09003 0.707345-20.277228 8.016578-19.805664 23.34239 0.471563 22.163481-0.235782 44.326963 0.235781 66.490445 0.235782 7.545015-2.593599 9.431269-9.66705 9.431268-23.34239-0.235782-46.68478-0.235782-70.262952-0.235781-26.171771 0.235782-26.171771 0.235782-25.700207 26.643334 0.235782 14.854248 5.658761 20.984573 20.748791 21.220354 23.813953 0.471563 47.627907 0.943127 71.206079 0.471564 10.138614-0.235782 14.146903 3.065162 13.911121 13.439558-0.707345 30.18006-0.943127 60.124338-0.943127 90.304398 0 21.456136-3.772507 42.440709-5.658761 63.661063-0.707345 8.488142-4.244071 12.732213-14.146903 12.496431-32.537877-0.707345-65.075754-0.235782-97.613631-0.235781-26.643334 0-26.643334 0-26.171771 26.879115 0.471563 17.683629 5.187198 22.399263 22.635045 22.399264h90.304398c13.67534 0 15.797375 2.122035 11.317522 15.325811-9.66705 28.76537-20.277228 57.059176-35.838821 83.230947-31.358968 53.52245-71.677642 99.971448-118.362422 144.298411 19.334101 9.66705 37.253511 19.805664 55.880267 27.822243 8.016578 3.536726 16.50472 0.943127 23.578172-6.601889 18.155192-19.098319 36.781948-37.960857 53.758231-58.473866 14.382685-17.212065 28.058024-34.895694 39.375547-53.994013 10.374396-17.683629 20.277228-36.310385 29.001152-55.172922 13.203776-28.293806 22.870827-57.294957 29.944278-87.475017 1.41469-6.366106 3.536726-9.431269 10.610177-9.431269 25.700207 0.471563 51.636196 0 77.336403 0 53.994013 0 107.752245 0.235782 161.746259 0.235782 3.536726 0 9.195487 1.886254 9.431268-4.244071 1.178909-9.902832 1.886254-20.984573 0-31.358968z m-146.184664-13.203777c-30.18006-0.707345-60.124338-0.471563-90.304398 0-7.780797 0-10.845959-2.357817-9.902833-10.138614 4.951416-39.139765 5.42298-78.751094 5.658762-118.12664 0-12.732213 0-25.228644-0.707345-37.960857-0.471563-9.902832 3.536726-13.203776 13.203776-12.967994 23.34239 0.471563 46.68478 0.235782 70.02717 0.471563 14.382685 0.235782 22.870827 8.016578 23.106608 22.635045 0.471563 24.521299 0.235782 49.042597 0.235782 73.563896h0.471563c0 23.34239-0.235782 46.68478 0.235782 70.02717-0.235782 8.488142-2.122035 12.732213-12.024867 12.496431z" fill="#545253" p-id="15396"></path><path d="M437.139305 785.388902c-0.707345-12.496431 3.300944-28.529588-11.553305-42.44071-31.59475-29.944278-61.067465-62.482155-91.954869-93.133778-16.976284-16.976284-33.952567-34.659913-58.002303-42.204927-12.496431-4.008289-25.464426-5.42298-37.960857-8.252361-20.984573-4.715634-42.204927-9.431269-63.425282-12.732212-28.529588-4.479853-57.059176-8.488142-85.588763-12.26065-29.944278-4.008289-56.823394 5.42298-68.140917 38.43242-5.894543 17.683629-7.309233 35.603039-8.016578 53.758232-2.829381 68.848262-4.715634 137.696523 1.650472 206.544785 3.300944 36.074603 19.805664 63.896845 53.050887 78.043748 28.293806 12.024868 57.294957 22.870827 87.003453 31.358969 35.131476 10.374396 70.498734 20.277228 106.809119 24.049735 18.862537 1.886254 37.725075-2.357817 50.693069-18.390974 18.155192-22.635045 35.603039-45.505872 53.050886-68.61248 21.220355-28.058024 41.969146-56.587612 63.425282-84.409855 5.42298-6.83767 8.723924-14.146903 8.959706-22.635045 0.235782-7.545015 0-15.561593 0-27.114897zM266.433341 912.003684c-1.886254 17.212065-6.601888 21.691918-23.578172 22.163482-16.50472 0.471563-31.59475-5.894543-47.392125-8.016579-17.919411-2.593599-35.131476-7.780797-52.343541-12.024867-21.691918-5.187198-43.383836-13.67534-60.595902-29.001152-10.138614-9.195487-13.67534-22.870827-13.675339-36.781948V759.217131c-3.065162-29.236933-0.943127-58.709648-0.235782-87.946581 0.235782-5.42298 0.707345-11.081741 2.357817-16.50472 3.300944-10.610177 10.374396-16.976284 21.9277-15.325812 28.058024 4.008289 56.351831 6.601888 84.174073 12.024868 22.870827 4.479853 44.562745 12.496431 67.433571 16.268939 10.138614 1.650472 17.212065 8.959705 19.569883 19.805664 5.658761 24.521299 6.130325 49.514161 6.601888 74.507023 0.943127 50.221506 1.178909 100.20723-4.244071 149.957172z" fill="#FE7E00" p-id="15397"></path><path d="M1103.694221 635.667511v-294.727147c0-32.066314 2.122035-34.188349 34.188349-33.952568 10.610177 0 21.456136 1.178909 32.066313 0.943127 8.016578-0.235782 9.66705 2.593599 9.667051 10.138614-0.471563 48.335252-0.707345 96.670504-0.707345 145.005757 0 155.615934 0.235782 311.231867 0.471563 467.083582 0 17.212065-8.016578 25.228644-24.992862 25.464426-13.439558 0-26.879116-0.471563-40.318674 0.235782-8.25236 0.235782-10.610177-2.593599-10.610177-10.845959 0.471563-63.425282 0.235782-126.850564 0.235782-190.040065v-119.305549zM1456.659452 703.572646c22.635045 0 43.855399-0.471563 65.075754 0.235781 8.959705 0.235782 13.911121 7.780797 17.212065 15.797375 19.569883 45.741653 42.676491 89.361271 74.507023 128.029473 21.456136 26.171771 45.505872 49.278379 72.620769 69.791389 3.300944 2.357817 4.951416 4.008289 0.471564 6.601888-16.740502 9.902832-33.481004 20.277228-50.457288 29.708496-9.195487 5.187198-16.976284 0.471563-23.578172-5.658761-18.155192-17.447847-36.546166-34.895694-52.107759-54.93714-20.748791-26.407552-40.554455-53.286668-56.351831-82.995165-17.919411-33.952567-34.659913-68.61248-47.392125-106.573336zM1090.490444 512.117891c-1.41469 50.221506-8.488142 99.971448-13.203776 149.957172-1.178909 12.024868-7.545015 16.976284-20.041446 17.212066-14.618466 0.235782-29.236933-0.471563-43.855399 0.235781-8.723924 0.235782-10.610177-3.772507-8.959706-10.845959 7.545015-36.074603 8.25236-72.856551 9.902833-109.402717 1.41469-30.415842 3.065162-60.831683 4.24407-91.247524 0.943127-21.9277 5.187198-26.407552 26.643335-26.407553 11.789086 0 23.813953 0.471563 35.603039-0.235781 8.016578-0.471563 10.138614 2.357817 9.902832 10.138613-0.707345 20.277228-0.235782 40.554455-0.235782 60.595902zM1249.643104 610.203085h-19.098319c-16.268939 0-22.635045-3.536726-23.106609-20.041446-0.943127-38.43242-9.195487-75.921713-13.203776-114.118351-0.943127-7.780797-1.41469-15.797375-2.357817-23.578172-1.178909-8.016578 1.178909-11.317522 9.902832-10.845959 12.967994 0.707345 26.171771 0 39.139765 0.235782 15.561593 0.235782 19.569883 3.300944 21.9277 18.626756 4.244071 27.586461 7.780797 55.408704 12.024868 82.995164 2.829381 19.098319 6.366106 37.960857 7.309233 57.530739 0.471563 8.016578-2.593599 10.610177-10.138614 9.902833-7.545015-0.471563-15.09003 0-22.635045 0 0.235782-0.235782 0.235782-0.471563 0.235782-0.707346z" fill="#545253" p-id="15398"></path></svg>