<?xml version="1.0" standalone="no"?><!DOCTYPE svg PUBLIC "-//W3C//DTD SVG 1.1//EN" "http://www.w3.org/Graphics/SVG/1.1/DTD/svg11.dtd"><svg t="1728988797551" class="icon" viewBox="0 0 3435 1024" version="1.1" xmlns="http://www.w3.org/2000/svg" p-id="22851" xmlns:xlink="http://www.w3.org/1999/xlink" width="858.75" height="256"><path d="M1712.957874 173.769697c-9.433212-3.971879-17.128727-5.461333-16.632242-3.723636s-2.978909 1.489455 1.985939 2.978909c0 0 19.114667 0 20.604122 16.135757a51.137939 51.137939 0 0 1-18.36994 43.194182v4.220121c0 4.220121 0 7.19903-4.964848 12.163879s-16.880485 21.100606-20.604121 24.824243a44.683636 44.683636 0 0 0-6.454304 10.674424c-1.489455 3.475394-6.702545 4.716606-11.170909 8.440242a26.810182 26.810182 0 0 1-15.639272 5.709576 46.173091 46.173091 0 0 0-18.866425 4.220121c-3.723636 2.730667-4.964848 0-5.709575-6.950788S1613.660905 264.129939 1613.660905 260.654545s-1.985939-3.475394-1.98594-7.695515 4.220121-7.695515 3.475394-11.915636a14.398061 14.398061 0 0 1 7.695515-16.384c8.440242-4.220121 27.554909-11.419152 38.974061-16.384s21.845333-9.18497 24.824242-17.625212c0 0 1.985939-3.475394 3.475394-2.730667s0 8.440242 3.475394 6.950788 2.234182 0 2.730667-4.220121 2.234182-5.461333 7.19903-4.964849c0 0 10.177939 3.227152 10.17794 0s-5.213091-4.716606-10.17794-6.454303-8.440242-4.220121-9.681454-1.985939a5.213091 5.213091 0 0 1-5.213091 2.978909c-2.730667 0-7.447273 0-5.957818 1.737697s2.234182 4.220121 0 6.454303 0 0-4.220122 0h-6.950787c-3.227152 0-4.468364 0-2.730667-4.220121s3.227152-4.964848 3.227151-7.695515-3.227152-3.227152-5.957818-2.482425-1.489455 2.730667-6.950788 3.227152a31.278545 31.278545 0 0 0-7.943757 1.489454s-3.971879-1.489455-4.468364 0-2.730667 3.227152-5.213091 3.227152-2.234182-2.730667 0-3.723636 0-3.723636 0-4.220122-1.985939-3.227152 0-3.723636a8.440242 8.440242 0 0 0 7.447273-5.461333s0-1.985939-4.220121-1.98594L1613.660905 166.322424c-4.220121 0-6.454303 0-6.454303 2.978909a2.482424 2.482424 0 0 0 2.978909 2.482425c17.128727 0 23.334788 0 24.824242 2.234181s-12.412121 0-12.412121 0c-8.440242 0-11.419152 0-13.156848 3.723637a3.723636 3.723636 0 0 1-3.723637 1.737697A17.128727 17.128727 0 0 0 1588.836662 173.769697h-4.716606c-5.461333 0-13.156848-11.170909-21.100606-20.355879A198.593939 198.593939 0 0 1 1539.188177 115.929212a118.908121 118.908121 0 0 0-15.639272-24.824242 71.245576 71.245576 0 0 0-53.372121-24.824243c-4.220121 0-1.985939 5.709576-1.98594 5.709576a50.889697 50.889697 0 0 1 6.702546 14.646303l-6.454303 2.730667a63.798303 63.798303 0 0 1 7.695515 18.121697 255.937939 255.937939 0 0 1 2.730666 36.739878A77.451636 77.451636 0 0 1 1475.141632 173.769697s-4.716606 8.688485-1.737697 13.901576a21.845333 21.845333 0 0 1 0 19.859394c-2.978909 7.19903-9.18497 10.426182-8.192 14.39806s2.978909 5.461333-2.234182 7.447273a170.790788 170.790788 0 0 0-30.533818 12.660364c-7.19903 5.461333-13.156848 4.964848-19.362909 8.192s-8.440242 5.213091-15.639273 8.192-18.866424 5.709576-22.093576 10.922666-3.971879 5.957818-16.632242 8.936728c0 0-5.213091 0 0-8.192s0-11.667394-4.220121-19.859394l-6.206061-17.625212c-3.227152-9.433212 0-11.419152-4.220121-16.880485s-9.433212-5.213091-10.426182 2.234181-2.978909 4.220121-6.20606 10.426182-9.433212 24.824242-13.653334 35.250425A313.778424 313.778424 0 0 0 1298.393026 297.890909a84.402424 84.402424 0 0 1-10.426182 20.852364c-2.234182 5.213091-3.227152 4.964848-3.227151 10.426182a26.313697 26.313697 0 0 1-5.213091 14.39806 50.889697 50.889697 0 0 0-8.192 16.880485 204.055273 204.055273 0 0 0-5.213091 32.271515c0 11.419152-2.234182 21.845333 2.978909 27.058424s4.220121 5.213091 8.440242 14.646303 4.220121 13.405091 9.433212 14.398061c0 0 8.192 15.639273 14.398061 15.639273a41.208242 41.208242 0 0 0 17.873455-5.213091c7.19903-2.978909 11.419152-6.206061 12.412121 2.234182s3.227152 30.285576 12.660363 33.264485a70.749091 70.749091 0 0 1 14.646303 1.985939 30.037333 30.037333 0 0 0 21.845334 0 77.203394 77.203394 0 0 1 32.271515-11.419152 198.593939 198.593939 0 0 0 55.358061-15.639272 134.299152 134.299152 0 0 0 4.964848 14.646303 49.648485 49.648485 0 0 1 3.227152 24.824242 80.678788 80.678788 0 0 0 0 37.484606 89.615515 89.615515 0 0 1 4.220121 27.058424v29.044364a57.840485 57.840485 0 0 0 4.220121 23.086546 13.405091 13.405091 0 0 1 0 12.412121 45.924848 45.924848 0 0 0 0 29.292606 85.643636 85.643636 0 0 1 5.213091 18.618182c0 5.213091 0 13.901576 2.482424 13.901575s2.730667 2.234182 2.730667-1.985939a55.109818 55.109818 0 0 0 0-10.674424c0-4.964848 0-4.964848 1.489454-4.964849s2.730667 0 4.220122 4.964849c0 0 0 5.709576 1.489454 4.964848s3.475394-6.206061 0-12.660363-6.454303 2.234182-6.454303-18.36994c0 0 2.978909-17.625212 7.19903-11.419151a179.23103 179.23103 0 0 1 11.915637 42.449454 4.468364 4.468364 0 0 0 5.709575 0c3.475394-1.985939 7.695515 0 3.475394 3.475394s-6.702545 2.730667-7.19903 14.894546-3.475394 26.313697 2.234182 24.824242c0 0 1.489455 1.489455 5.709576-2.730667 0 0 4.964848-2.978909 6.454303 1.98594s0 10.674424 3.475394 9.184969 0 1.985939 1.489454-7.19903 0-18.866424 3.475394-16.135757 6.454303 2.978909 6.950788-1.489455a103.268848 103.268848 0 0 1 0-13.405091c0-5.709576 0-11.915636 4.220121-1.985939 0 0 2.730667 1.241212 6.206061-4.220121s6.454303-6.454303 4.468363-21.348849a66.032485 66.032485 0 0 1 0-26.313697 75.713939 75.713939 0 0 0 2.730667-23.334788 38.974061 38.974061 0 0 1 5.709576-18.369939 114.688 114.688 0 0 0 17.625212-65.039515s1.489455-19.114667 1.489455-28.299637 0-16.135758 5.709575-20.355879a24.824242 24.824242 0 0 0 10.426182-14.894545 213.98497 213.98497 0 0 1 20.604121-52.379151 20.852364 20.852364 0 0 1 4.964849-7.943758 18.369939 18.369939 0 0 1 14.149818-5.461333 134.795636 134.795636 0 0 0 35.498667-10.674425s9.681455-4.964848 9.184969-13.405091c0 0 8.440242 3.475394 13.405091-35.498666 0 0 5.709576-39.470545 7.695515-50.889697a37.732848 37.732848 0 0 1 8.440243-21.100606 5.709576 5.709576 0 0 0 2.978909-6.454303 338.354424 338.354424 0 0 1 8.440242-63.053576s4.964848-21.845333-4.964848-32.519758A32.519758 32.519758 0 0 0 1712.957874 173.769697z m-241.539878 185.685333a142.491152 142.491152 0 0 0-15.142788 17.873455 29.044364 29.044364 0 0 1-13.653334 11.667394 176.252121 176.252121 0 0 1-45.428363 10.426182 79.685818 79.685818 0 0 0-39.967031 24.824242 35.498667 35.498667 0 0 1-18.618181 6.950788c-4.220121 0-3.475394-6.950788 0-10.426182s2.234182-1.985939 2.978909-6.206061a28.299636 28.299636 0 0 1 2.730666-10.922666 24.824242 24.824242 0 0 1 6.206061-9.681455 31.278545 31.278545 0 0 0 8.936727-13.653333c1.241212-6.206061 2.730667-8.440242 3.971879-13.901576a57.840485 57.840485 0 0 1 10.426182-17.128727l12.412121-16.632243a79.189333 79.189333 0 0 1 28.051394-19.859393 251.469576 251.469576 0 0 0 24.824242-8.936728c16.632242-7.695515 22.838303-14.398061 24.824243-18.618182s4.220121-1.985939 4.220121-1.985939 2.730667 12.908606 4.716606 24.824242a126.355394 126.355394 0 0 0 4.220121 19.859394c1.985939 6.206061 3.475394 13.901576 3.475394 13.901576-3.227152 14.894545-5.957818 14.894545-9.433212 18.36994z" fill="#005BAC" p-id="22852"></path><path d="M1666.288299 169.301333c3.723636-1.241212 2.978909 0 7.19903 0a31.526788 31.526788 0 0 0 9.681455 0c4.716606 0 3.475394 0 5.957818-1.985939s-4.964848 0-9.681455-1.489455-4.716606 0-6.454303-1.489454L1663.30939 163.84a7.943758 7.943758 0 0 0-7.695516 6.206061c2.234182 3.723636 7.695515 0.496485 10.674425-0.744728zM1675.969753 181.21697c0 3.723636 2.234182 4.220121 2.234182 4.220121a32.023273 32.023273 0 0 1 1.241212-6.454303h3.723637a16.880485 16.880485 0 0 0 5.957818 0c2.234182-2.234182-9.681455-3.475394-12.163879-3.475394s-0.99297 2.234182-0.99297 5.709576zM1502.944784 705.256727c-1.737697-1.489455 0-2.978909-4.220122-2.978909a3.723636 3.723636 0 0 0-2.482424 3.971879 30.782061 30.782061 0 0 0 2.482424 9.681455 17.873455 17.873455 0 0 1 3.475394 8.688484c0 3.227152 1.737697 4.220121 3.227152 0a21.100606 21.100606 0 0 0 0-13.653333c-0.99297-4.716606-0.496485-4.220121-2.482424-5.709576zM1511.881511 710.966303s-2.482424-1.241212-2.482424 2.978909v17.873455c0 2.482424 3.723636 4.716606 3.723636 0s1.241212-21.597091-1.241212-20.852364zM1554.330965 706.249697s-3.971879-3.475394-3.475394 2.978909-2.482424 21.597091 0 20.107636 4.468364-1.241212 3.971879-9.681454 1.241212-12.412121-0.496485-13.405091zM1920.736784 337.609697a16.632242 16.632242 0 0 1 0-17.128727 45.924848 45.924848 0 0 0 0-32.768 36.739879 36.739879 0 0 1-3.723637-23.086546A43.938909 43.938909 0 0 0 1911.551814 236.57503c-4.964848-12.163879-9.681455-13.405091-9.681455-20.604121a17.37697 17.37697 0 0 0-6.20606-12.163879s-2.482424 0-4.716606 6.206061a85.643636 85.643636 0 0 0-6.206061 42.449454 55.358061 55.358061 0 0 0 0 15.639273 167.067152 167.067152 0 0 1 2.482424 19.611152c0 4.716606 2.234182 7.19903 0 13.405091s0 18.121697-3.723636 24.824242a55.606303 55.606303 0 0 0-8.440243 30.285576 177.245091 177.245091 0 0 1-1.241212 43.690666 128.093091 128.093091 0 0 0-6.20606 32.768 95.076848 95.076848 0 0 1-3.475394 32.768 109.971394 109.971394 0 0 0-3.723637 34.009213 103.765333 103.765333 0 0 1 2.482425 28.051394 131.320242 131.320242 0 0 1-3.723637 19.362909 60.074667 60.074667 0 0 0 2.730667 38.477575c5.957818 15.639273 19.362909 24.824242 24.824242 23.086546a49.648485 49.648485 0 0 0 10.922667-47.414303 89.615515 89.615515 0 0 1 0-36.491637s5.957818-24.824242 2.482424-30.285575c0 0-7.447273-3.723636-2.482424-24.824243a104.510061 104.510061 0 0 0 2.482424-17.128727 118.411636 118.411636 0 0 1 3.475394-35.250424c4.964848-21.845333 7.447273-24.824242 10.922667-38.725818a198.593939 198.593939 0 0 1 6.206061-24.824243 13.156848 13.156848 0 0 0 0-15.887515zM2288.880299 570.957576a39.718788 39.718788 0 0 0 0-24.824243 34.257455 34.257455 0 0 1 0-19.362909 124.121212 124.121212 0 0 0 0-37.732848 205.79297 205.79297 0 0 1 0-27.803152 118.411636 118.411636 0 0 0-2.482425-31.77503c-2.482424-7.19903 0-34.009212 0-54.613333s-1.241212-42.449455-2.482424-64.294788a225.404121 225.404121 0 0 0-4.716606-42.697697 39.470545 39.470545 0 0 1 0-24.824243A64.54303 64.54303 0 0 0 2283.91545 217.212121a115.929212 115.929212 0 0 0-4.716606-18.618182 45.428364 45.428364 0 0 1 2.482424-21.845333 134.547394 134.547394 0 0 0 3.475394-19.611151 59.081697 59.081697 0 0 0-15.639272-37.484607c-8.440242-9.929697-15.887515-19.611152-15.887516-19.611151a33.512727 33.512727 0 0 0-31.526787-7.19903c-7.447273 0-18.369939 0-37.732849 3.723636a88.622545 88.622545 0 0 0-35.250424 9.681455 15.639273 15.639273 0 0 1-14.646303 3.475394c-7.19903 0-10.922667 2.482424-16.880485 3.723636s-19.611152 2.482424-19.611152 2.482424L2054.291208 124.121212a154.65503 154.65503 0 0 0-34.009212 13.405091 163.591758 163.591758 0 0 1-18.121697 8.440242 51.882667 51.882667 0 0 1-28.051394 14.646303 290.443636 290.443636 0 0 0-46.173091 13.156849c-5.957818 0-7.19903 4.716606-7.19903 4.716606s15.639273 0 19.362909 8.688485 4.964848 7.19903 12.163878 8.440242A99.29697 99.29697 0 0 0 1986.024541 194.125576a135.540364 135.540364 0 0 0 29.292606-10.922667c8.440242-4.964848 18.121697-5.957818 29.044364-10.922667S2072.661147 161.357576 2085.321511 156.392727a107.737212 107.737212 0 0 1 29.044363-5.957818 198.593939 198.593939 0 0 0 24.824243-7.447273 126.603636 126.603636 0 0 1 29.044363 0h19.611152a23.086545 23.086545 0 0 1 20.604121 8.688485 108.481939 108.481939 0 0 1 10.922667 15.639273c4.964848 15.887515 0 18.369939 0 31.77503s-3.723636 55.854545-3.723636 72.735031a486.058667 486.058667 0 0 1-4.716607 49.648484 66.280727 66.280727 0 0 0 0 31.526788 332.396606 332.396606 0 0 1 0 40.215273 49.648485 49.648485 0 0 0-3.723636 26.561939 74.472727 74.472727 0 0 1 0 10.922667 287.216485 287.216485 0 0 0 7.19903 67.025455 28.051394 28.051394 0 0 1-4.716606 30.285575 46.173091 46.173091 0 0 0-4.964848 30.285576 46.669576 46.669576 0 0 1-2.482424 26.810182c-3.475394 5.957818-7.19903 0-13.405091-7.447273s-19.362909-18.121697-24.824243-15.639273 1.489455 30.285576 8.688485 38.725819a54.116848 54.116848 0 0 1 9.681455 20.852363c2.482424 5.957818 9.681455 18.121697 9.681454 18.121697a72.73503 72.73503 0 0 1 17.37697 36.739879 27.803152 27.803152 0 0 0 15.887515 23.086546A175.755636 175.755636 0 0 0 2259.091208 719.90303c9.929697 3.723636 23.086545-19.362909 23.086545-19.362909a81.175273 81.175273 0 0 0 6.206061-44.931879 39.222303 39.222303 0 0 1 2.482424-20.604121 60.074667 60.074667 0 0 0 2.482424-19.611151 64.54303 64.54303 0 0 0-4.964848-23.086546 24.824242 24.824242 0 0 1 0.496485-21.348848z" fill="#005BAC" p-id="22853"></path><path d="M2146.63739 217.212121a145.966545 145.966545 0 0 0-11.667394-21.845333c-4.716606-7.447273-12.163879-6.206061-20.604122-3.723636a255.937939 255.937939 0 0 1-24.824242 4.964848 92.346182 92.346182 0 0 0-35.250424 9.681455 137.526303 137.526303 0 0 1-30.285576 10.922666 124.121212 124.121212 0 0 0-24.824242 8.440243c-10.922667 3.723636-16.880485 10.922667-24.824243 12.163878a24.824242 24.824242 0 0 0-15.639273 9.681455 64.54303 64.54303 0 0 1-18.369939 10.922667c-21.845333 6.206061-13.405091 15.887515-13.405091 15.887515s7.447273 2.482424 19.611152 7.19903 7.19903 4.964848 7.19903 4.964849c-2.482424 15.887515 7.19903 21.845333 15.887515 21.845333s21.845333-1.241212 29.044364-1.241212 8.688485 0 9.681454 7.19903 2.482424 15.887515 2.482425 15.887515c2.482424 24.824242-12.163879 21.845333-12.163879 21.845334-49.648485 22.093576-58.33697 32.768-62.060606 38.97406s-11.170909 16.632242-5.957819 20.604121 12.163879 10.922667 17.128728 10.922667 7.19903 0 10.922666 8.440242 5.957818 9.681455 13.405091 8.688485 8.440242 0 8.440243 0a44.683636 44.683636 0 0 1-2.482424 13.156849 44.187152 44.187152 0 0 1-12.163879 20.852363c-4.964848 2.234182-5.957818 7.19903-10.922667 13.156849a24.824242 24.824242 0 0 0-6.206061 11.170909c-2.234182 5.957818-4.716606 10.922667-4.716606 10.922667a35.746909 35.746909 0 0 0 10.922667 38.725818c5.957818 6.206061 30.285576 3.723636 37.732849 1.241212s7.19903 0 14.646303-4.964848 10.922667-3.475394 20.604121-7.199031a74.472727 74.472727 0 0 0 24.824242-13.405091c7.447273-5.957818 20.852364-10.922667 29.292606-16.880485a85.891879 85.891879 0 0 1 25.817212-9.929697 68.514909 68.514909 0 0 0 24.824243-17.128727c6.206061-7.19903 9.929697-4.964848 12.163879-10.922666s4.964848-13.405091 4.964848-13.405091h-7.19903c-4.964848 0 3.475394-15.639273 3.475394-15.639273a37.981091 37.981091 0 0 1-20.604121-2.482424 49.648485 49.648485 0 0 0-23.086546 0c-4.964848 1.241212-2.482424-10.922667 0-18.36994s1.241212-9.681455 1.241212-9.681454c-3.723636-5.957818 10.922667-4.716606 10.922667-4.716606a82.168242 82.168242 0 0 1 21.845333-30.533819 37.732848 37.732848 0 0 0 10.922667-19.362909 21.845333 21.845333 0 0 0-9.681455-21.845333c-8.440242-7.19903-18.369939-12.163879-29.292606-20.604121s-3.475394-9.681455 0-19.611152 10.922667-10.922667 20.604121-22.838303 7.19903-8.688485 9.681455-14.646303a17.625212 17.625212 0 0 1 7.19903-8.688485c4.964848-9.681455 0-10.922667 0-16.880484s5.709576-2.234182 0.744728-11.915637z" fill="#005BAC" p-id="22854"></path><path d="M2143.161996 401.904485a51.386182 51.386182 0 0 0-4.964849 7.19903c-3.723636 6.206061-3.723636 7.447273 3.723637 7.447273s5.957818-2.482424 19.362909-4.964849a84.898909 84.898909 0 0 1 29.044363-3.723636s13.405091 2.482424 14.646303-16.880485-4.716606-26.810182-12.163879-28.051394a69.259636 69.259636 0 0 1-15.639272-3.475394c-6.206061-2.482424-19.611152-8.688485-19.611152-8.688485s8.440242 17.128727 2.482424 24.824243a80.92703 80.92703 0 0 0-16.880484 26.313697zM2869.519329 581.135515c-5.461333 0-5.461333-4.468364-5.461333-4.468363a30.782061 30.782061 0 0 0 2.730666-5.461334c2.234182-5.709576-4.220121 0-3.971878-5.709576s-4.468364 3.475394-4.468364 3.475394a16.880485 16.880485 0 0 1 0-3.227151c0-1.241212 0-3.475394-2.234182-2.730667s-3.723636-4.468364 0-5.213091a52.627394 52.627394 0 0 1-6.206061-6.454303s-2.482424 0-1.985939 2.730667-3.227152 3.475394-3.227151 0 4.468364-3.971879 4.468363-3.971879 0-3.475394-5.213091 0-3.971879 0-1.737697-2.978909 0-2.234182-4.468363-1.737697a10.177939 10.177939 0 0 0-7.447273 3.475394l-9.929697 8.192a24.824242 24.824242 0 0 1-9.18497 3.971879 289.947152 289.947152 0 0 1-31.030303 7.447273 402.152727 402.152727 0 0 0-43.194182 10.922666 72.486788 72.486788 0 0 1-19.611151 3.971879c-3.475394 0-20.355879 0-28.299636 2.482424s-13.901576 2.730667-19.114667 3.475394a12.908606 12.908606 0 0 1-9.681455-2.482424 54.365091 54.365091 0 0 0-11.419151-2.730667l-4.468364-5.957818c-4.468364-5.957818-3.475394-9.18497-9.433212-21.100606a16.632242 16.632242 0 0 1 4.220121-20.852364c5.213091-5.461333 12.412121-14.894545 17.625212-19.362909a19.859394 19.859394 0 0 1 17.37697-4.468363 54.861576 54.861576 0 0 1 13.156849-1.737697 26.810182 26.810182 0 0 0 15.639272-5.213091 17.873455 17.873455 0 0 1 11.419152-1.737697 137.278061 137.278061 0 0 0 15.887515-4.220121 100.786424 100.786424 0 0 1 20.107636-2.730667c7.695515 0 11.170909-2.730667 17.37697-2.730667a12.163879 12.163879 0 0 0 12.163879-5.957818c4.468364-5.213091 3.475394-10.426182 10.426182-17.625212s12.908606-8.688485 11.419151-13.901576a74.472727 74.472727 0 0 1 0-19.114666 15.39103 15.39103 0 0 0-1.737697-13.156849c-4.468364-7.943758-7.943758-10.426182-10.674424-16.632242a20.107636 20.107636 0 0 1 0-22.838303 225.900606 225.900606 0 0 0 14.894545-34.009213 31.030303 31.030303 0 0 1 5.213091-16.632242 39.222303 39.222303 0 0 0 4.468364-15.639273c1.737697-8.936727 2.482424-6.206061 4.220121-14.149818a27.554909 27.554909 0 0 0 0-10.426182 38.229333 38.229333 0 0 1 0-13.156848c0-4.220121-1.737697-6.950788-2.482424-11.170909s0 2.482424-2.730667-6.206061a21.348848 21.348848 0 0 0-6.950788-13.156848 37.236364 37.236364 0 0 1-9.681454-20.107637s3.475394-3.475394-7.943758-13.156848a30.285576 30.285576 0 0 0-11.170909-4.220121 16.632242 16.632242 0 0 1-13.156848-4.468364 22.590061 22.590061 0 0 0-17.625212-4.468364 19.114667 19.114667 0 0 1-12.163879-1.737697 30.782061 30.782061 0 0 0-16.632243 3.475394c-3.723636 1.985939-33.264485 14.894545-41.952969 21.100606a59.578182 59.578182 0 0 1-19.114667 10.426182c-6.206061 1.737697-7.943758 0-6.206061-6.950788s3.475394-20.852364 6.206061-35.002182a31.526788 31.526788 0 0 0-13.156849-33.264484c-10.426182-5.957818-24.824242-16.135758-33.760969-14.398061 0 0-7.447273-2.482424-6.206061 4.964848s0 9.681455-4.716606 16.880485a69.507879 69.507879 0 0 0-12.163879 32.768 393.960727 393.960727 0 0 1-7.19903 43.690667c-1.241212 8.688485-1.241212 15.887515-12.163879 20.852364a228.879515 228.879515 0 0 0-55.854545 36.243394s13.405091-1.241212 15.639273 6.20606 7.19903 4.964848 14.646303 2.482424 15.639273-8.688485 18.121697-2.482424a39.96703 39.96703 0 0 1 2.482424 9.681455 15.39103 15.39103 0 0 1-2.482424 14.646303 105.006545 105.006545 0 0 1-18.121697 23.086545 107.240727 107.240727 0 0 1-32.768 24.824243c-6.206061 2.482424-6.206061 0-3.723637-8.440243 0 0 2.482424-24.824242 3.723637-31.526788a26.561939 26.561939 0 0 0 0-19.362909c-3.723636-8.688485-10.922667-13.405091-12.163879-18.369939s0-2.234182-7.199031-5.957818-6.206061-9.681455-6.20606-14.646303-5.957818-8.440242-8.440243 2.482424A133.057939 133.057939 0 0 1 2457.685147 322.715152a36.988121 36.988121 0 0 0-8.440242 27.803151 185.437091 185.437091 0 0 1 0 37.732849 529.004606 529.004606 0 0 1-7.199031 60.819393c-3.723636 15.639273-6.206061 15.639273-8.688484 24.824243a21.845333 21.845333 0 0 0 7.447272 26.561939 40.463515 40.463515 0 0 0 21.845334 10.922667c5.957818 1.241212 7.19903 3.723636 9.681454 8.688485a29.540848 29.540848 0 0 0 12.163879 13.156848 51.137939 51.137939 0 0 0 32.768 12.163879s8.440242-2.482424 12.163879 10.922667a277.783273 277.783273 0 0 0 16.880485 58.336969s4.964848 12.163879 9.929697 13.405091a48.15903 48.15903 0 0 0 15.639272 13.405091 115.184485 115.184485 0 0 0 38.974061 15.887515 325.445818 325.445818 0 0 0 44.931879 4.716606 134.299152 134.299152 0 0 0 63.301818-4.716606 110.964364 110.964364 0 0 1 24.824242-4.964848 71.245576 71.245576 0 0 0 28.051394-7.19903 537.693091 537.693091 0 0 1 62.060606-17.128728s7.19903 0 9.681455-4.964848-2.482424-2.234182 3.723636-5.957818a68.266667 68.266667 0 0 0 2.234182-7.199031 16.880485 16.880485 0 0 1 9.681455-12.412121 74.472727 74.472727 0 0 1 9.184969-3.475394c4.468364 0 7.19903-2.730667 7.199031-6.454303s-0.744727-5.461333-6.206061-6.454303z m-148.945455-215.970909a122.383515 122.383515 0 0 0-6.20606 24.824242c0 9.681455-6.950788 13.156848-13.901576 16.632243s-17.625212 8.688485-24.824242 13.156848a28.299636 28.299636 0 0 1-24.824243 3.475394 15.39103 15.39103 0 0 1-7.943757-17.625212 28.299636 28.299636 0 0 0 0-12.908606c0-6.206061 7.19903-10.674424 7.19903-10.674424a135.292121 135.292121 0 0 1 59.329939-27.058424c5.709576-1.985939 13.405091 1.241212 10.922667 10.177939z m-83.905939-74.472727a36.988121 36.988121 0 0 1 14.894545-17.37697c10.426182-6.206061 30.533818-8.936727 34.75394-13.156848a23.334788 23.334788 0 0 1 16.632242-5.213091 32.271515 32.271515 0 0 1 13.156849 0 29.540848 29.540848 0 0 0 13.156848 2.730666 17.625212 17.625212 0 0 1 9.681455 2.482425c-1.737697 5.213091 3.475394 12.412121 3.475394 12.412121 2.482424 7.695515-7.943758 12.908606-7.943758 12.908606-8.688485-1.737697-15.639273 4.468364-24.824242 11.419151a74.472727 74.472727 0 0 1-28.051394 13.156849 78.196364 78.196364 0 0 1-35.002182 0c-11.915636-2.482424-12.908606-9.433212-10.177939-19.114667z m-95.325091 148.945454c-1.737697 8.688485-4.468364 15.639273-6.950788 24.824243a18.369939 18.369939 0 0 1-9.681454 11.419151c-20.107636 3.475394-36.739879 18.369939-39.222303 16.632243s-1.737697-3.475394 0-9.681455 0-6.950788 0-6.950788c-2.730667-10.426182 0-1.737697 0-9.681454a64.791273 64.791273 0 0 0 1.737697-12.163879c0-6.206061 6.206061-16.632242 7.943757-22.838303s5.213091-5.213091 5.213091-5.213091 15.639273-5.957818 21.845333-7.695515a11.915636 11.915636 0 0 1 13.901576 2.482424c6.702545 3.971879 6.702545 9.929697 4.964849 18.866424zM2861.079087 570.957576c0-2.978909 3.971879 0 3.971878 0-0.496485 2.730667-3.971879 1.985939-3.971878 0zM3114.534602 350.270061c-4.468364-1.737697 0 0-6.206061-4.220122s-5.957818-6.206061-12.163879-7.943757-2.730667-3.475394-7.943757-5.213091a27.554909 27.554909 0 0 0-20.852364 0 34.009212 34.009212 0 0 1 5.213091-15.887515s1.737697 0 2.482424-8.688485-2.482424-13.901576 0-16.632243 3.475394-13.901576-2.730666-27.058424a129.830788 129.830788 0 0 1-14.646303-33.264485 44.435394 44.435394 0 0 0-17.625213-28.796121s-6.206061 0-6.20606 6.206061-1.737697 5.957818-2.482424 13.901576-4.468364 16.632242-5.213091 22.59006-2.730667 4.468364-5.213091 10.674424a219.198061 219.198061 0 0 0-11.419152 24.824243 282.499879 282.499879 0 0 1-17.625212 38.477576c-5.213091 9.433212-4.220121 8.688485-8.688485 16.632242s-9.433212 12.163879-11.419151 16.384a115.432727 115.432727 0 0 1-6.950788 9.681455c-3.475394 4.468364-5.213091 3.475394-6.950788 12.412121a192.387879 192.387879 0 0 0-4.220121 24.824242v19.114667c0 6.206061-1.985939 7.943758 2.482424 11.419151s10.426182 1.737697 10.426182 15.639273a138.27103 138.27103 0 0 1-1.489455 31.526788 15.142788 15.142788 0 0 0 5.461334-12.908606 14.149818 14.149818 0 0 1 1.489454 8.688485 23.086545 23.086545 0 0 0 6.454303-13.405091 27.554909 27.554909 0 0 1 11.170909-16.632243c3.723636-2.978909 22.838303-22.838303 27.803152-27.058424a125.362424 125.362424 0 0 0 11.667394-11.667394 8.192 8.192 0 0 1 7.943757-4.468363c5.461333 0 12.163879 8.688485 13.405091 17.128727a210.013091 210.013091 0 0 1 3.723637 24.824242c0 7.943758 2.234182 29.540848 1.737697 38.229334a54.365091 54.365091 0 0 1-4.220122 18.618181 81.175273 81.175273 0 0 0-3.475394 22.341819 116.922182 116.922182 0 0 1-3.475394 24.824242 210.509576 210.509576 0 0 0-11.170909 60.819394 175.259152 175.259152 0 0 0 0 29.044364c0 12.163879 2.234182 18.121697 9.18497 23.334788s7.19903 3.971879 8.936727 0 5.213091-8.688485 9.929697-8.192 8.192 1.737697 6.950788-4.716607a12.908606 12.908606 0 0 1 2.234182-12.908606 29.044364 29.044364 0 0 1 6.950788 0c3.475394 0 4.220121-1.241212 5.957818-4.716606s5.213091-4.716606 6.950788-12.163878a404.635152 404.635152 0 0 0 5.213091-51.386182c0-16.880485 4.220121-39.96703 6.702545-62.557091s5.213091-41.208242 6.206061-61.315879 0-14.894545 0-29.789091-3.475394-20.852364 1.737697-24.824242a28.796121 28.796121 0 0 0 5.213091-17.625212c1.241212-12.660364 3.227152-16.384-1.241212-18.121697zM3421.61048 173.769697a188.912485 188.912485 0 0 0-29.044363 0h-31.030303c-6.206061 0-8.688485 0-7.943758-5.957818a27.554909 27.554909 0 0 0 0-11.915637 125.610667 125.610667 0 0 1-1.489454-18.618181c0-7.19903 0-7.943758-2.482425-11.170909a19.362909 19.362909 0 0 0-11.915636-6.702546c-4.716606 0-6.702545-2.482424-10.177939-5.213091a22.590061 22.590061 0 0 0-10.426182-4.716606 40.463515 40.463515 0 0 1-11.915636-5.957818 110.964364 110.964364 0 0 0-28.299637-7.943758c-7.943758 0-11.915636 11.170909-13.405091 17.128728s-3.971879 4.716606-3.971879 4.716606a10.177939 10.177939 0 0 0-13.156848 3.971878c-1.985939 3.475394-3.227152 2.730667-3.227152 2.730667-4.716606 0-12.660364 9.929697-16.632242 13.156849s0 4.716606 0 4.716606l-4.964848 3.475394a59.826424 59.826424 0 0 0-9.929697 3.971878s-7.943758 0-6.206061 5.213091 13.156848 4.220121 22.838303-7.943757c0 0 2.482424 1.737697 10.426182 0 0 0 20.107636-4.468364 19.114666 0A9.681455 9.681455 0 0 1 3252.060905 148.945455c-5.213091 0-20.107636 0-21.845334 5.21309a21.597091 21.597091 0 0 0 13.156849 4.468364 30.037333 30.037333 0 0 1 24.824242 5.957818c8.688485 7.943758 15.887515 11.419152 13.156849 16.632243a24.824242 24.824242 0 0 1-14.894546 12.412121c-6.950788 1.737697-12.908606 0-19.611151 2.482424a65.536 65.536 0 0 1-24.824243 4.468364 99.29697 99.29697 0 0 0-24.824242 2.234182 68.514909 68.514909 0 0 1-22.590061 6.454303h-17.873454a74.472727 74.472727 0 0 0-22.590061 5.213091c-9.929697 4.716606-15.887515 11.915636-15.142788 5.461333s-9.433212 5.213091-8.688485 11.170909 0 10.674424 6.702546 12.660364a35.002182 35.002182 0 0 1 14.398061 5.213091c3.971879 3.227152 10.674424 0 17.376969-1.98594a72.73503 72.73503 0 0 1 24.824243-7.943757 118.163394 118.163394 0 0 0 21.845333-5.213091 223.418182 223.418182 0 0 1 43.194182-7.447273c14.398061 0 45.676606-1.985939 64.294788-1.241212s49.648485 0 54.116848 0a28.299636 28.299636 0 0 0 13.405091 0 41.208242 41.208242 0 0 1 20.355879-2.730667 28.051394 28.051394 0 0 0 10.674424 0 24.824242 24.824242 0 0 0 12.660364-3.227151c4.716606-1.985939 2.482424-9.929697 1.985939-14.398061s5.957818-6.702545 11.915637-10.177939a11.170909 11.170909 0 0 0 5.957818-9.18497c1.737697-6.454303-4.964848-9.681455-12.412122-11.667394zM3275.395693 304.09697a95.821576 95.821576 0 0 0 20.852363 10.426182 70.004364 70.004364 0 0 0 28.051394 9.681454c13.901576 1.737697 19.362909-2.730667 27.058424 2.482424a9.681455 9.681455 0 0 0 10.426182-1.737697c4.468364-4.220121 6.206061-14.894545 11.419152-19.114666l1.737697-6.206061c1.737697-6.206061 2.730667-14.894545-1.737697-14.894545s-5.957818-2.482424-7.695515-9.433213-3.723636-7.19903-7.943758-7.943757a12.660364 12.660364 0 0 1-9.681455-5.213091 18.121697 18.121697 0 0 0-15.639272-6.950788 41.208242 41.208242 0 0 1-17.625212 0 124.121212 124.121212 0 0 0-34.009212-3.475394l-36.739879 12.163879s-7.943758 5.213091-6.950788 10.426182a17.128727 17.128727 0 0 0 13.156848 14.894545 76.706909 76.706909 0 0 1 25.320728 14.894546zM3214.079814 354.738424c0 6.950788 1.737697 9.681455 7.943757 19.362909a146.711273 146.711273 0 0 0 21.845334 22.590061 36.988121 36.988121 0 0 0 28.051394 8.688485 53.620364 53.620364 0 0 1 27.803151 5.213091c5.461333 3.723636 8.936727 7.695515 15.887515 6.20606a36.243394 36.243394 0 0 1 13.156849-1.737697c6.950788 0 8.688485-5.213091 14.894545-5.213091a14.149818 14.149818 0 0 0 12.908606-6.950787 27.803152 27.803152 0 0 0 8.936728-19.36291c1.241212-9.433212 0-13.901576 5.213091-14.894545 0 0 6.950788 0 7.695515-7.695515s-2.482424-11.419152-8.688485-12.412121a29.044364 29.044364 0 0 0-16.632243 0c-5.213091 2.730667-6.454303 2.482424-16.632242 0a99.29697 99.29697 0 0 0-28.796121-6.206061c-10.426182 0-27.058424 1.737697-43.690667 1.737697a281.506909 281.506909 0 0 0-40.96 5.213091s-8.936727-1.737697-8.936727 5.461333zM3404.729996 595.781818c-5.213091 0-4.468364-4.220121-10.426182-7.695515s-2.730667-11.419152 0-16.632242 6.950788-16.632242 10.674424-26.313697a72.238545 72.238545 0 0 0 0-27.058425c0-6.206061 2.730667-3.475394 1.737697-14.894545s-1.737697-12.163879-10.426182-21.845333-5.213091-8.688485-6.950788-13.156849a18.369939 18.369939 0 0 0-9.681454-10.426182 81.92 81.92 0 0 1-9.681455-6.20606 46.421333 46.421333 0 0 0-24.824242-3.475394 14.149818 14.149818 0 0 1-11.419152-3.475394 83.161212 83.161212 0 0 0-23.58303 14.894545 194.622061 194.622061 0 0 1-31.526788 15.887515 177.493333 177.493333 0 0 1-35.746909 17.37697c-8.688485 0-12.163879 2.482424-17.37697-1.737697a34.753939 34.753939 0 0 1-10.674424-15.639273c-1.737697-5.461333-5.213091-8.936727-17.37697-10.674424a23.086545 23.086545 0 0 1-16.632242-14.894545s-6.950788-2.482424-6.950788 6.20606a61.564121 61.564121 0 0 1-2.730667 19.362909 38.477576 38.477576 0 0 0 0 21.845334 49.648485 49.648485 0 0 1 4.468364 26.065454 312.28897 312.28897 0 0 0 0 38.477576 38.477576 38.477576 0 0 1 0 17.625212 78.692848 78.692848 0 0 0 2.730667 24.824243c0 6.950788 6.206061 18.369939 7.943757 24.824242a24.824242 24.824242 0 0 1 0 13.901576 14.398061 14.398061 0 0 0 6.950788 14.894545c6.206061 2.730667 7.943758 0 16.632243 5.213091s7.943758 2.730667 13.156848 7.943758 5.213091 8.688485 7.943758 4.220121 2.482424-12.163879 7.695515-16.384c0 0 2.730667 0 2.730666-9.681455a129.334303 129.334303 0 0 1 3.475394-26.313697c1.737697-9.681455 2.730667-21.845333 5.213091-31.526787a90.856727 90.856727 0 0 0 2.730667-18.36994 19.611152 19.611152 0 0 0-4.468364-13.901576 14.149818 14.149818 0 0 1-2.482424-9.681454 26.561939 26.561939 0 0 0 0-7.695515c0-4.468364-2.730667-6.206061 3.475394-5.213091s18.369939 6.950788 28.796121-4.468364a101.282909 101.282909 0 0 1 26.313697-21.845333c5.213091-2.730667 6.950788 0 7.695515 7.943757s2.730667 20.107636 0 24.824243-15.887515 16.632242-22.838303 24.824242-16.632242 13.156848-19.114666 21.845334a65.039515 65.039515 0 0 0-2.730667 23.58303c0 10.426182-5.213091 15.639273 3.475394 20.107636a104.261818 104.261818 0 0 1 16.632242 10.426182c5.213091 3.475394 5.213091 2.730667 13.156849 3.475394a63.301818 63.301818 0 0 0 28.796121 0 37.484606 37.484606 0 0 1 22.838303-2.730667c5.213091 0 4.220121 0 12.163879 1.737697a30.285576 30.285576 0 0 0 15.639273 0h11.419151c5.213091 0 10.426182-6.206061 14.894546-7.943757s5.213091-12.163879 4.468363-16.632243 3.475394-6.950788 3.475394-13.901575-4.468364-11.915636-9.681454-11.915637zM2175.681753 531.238788s-1.737697-2.482424-6.950788 0a49.648485 49.648485 0 0 1-17.625212 7.19903c-11.170909 2.482424-13.901576 2.482424-17.376969 5.213091s-3.475394 1.737697-7.943758 2.482424-6.950788 0-10.426182 3.475394a17.128727 17.128727 0 0 1-13.901576 5.213091 34.753939 34.753939 0 0 0-19.362909 3.723637 60.074667 60.074667 0 0 1-20.107636 8.688484 63.053576 63.053576 0 0 0-17.37697 5.213091 30.037333 30.037333 0 0 1-14.894545 2.482425 29.540848 29.540848 0 0 0-15.639273 5.461333c-5.461333 2.482424-11.419152 9.433212-17.625212 5.957818a24.824242 24.824242 0 0 0-22.590061 1.737697 33.512727 33.512727 0 0 1-18.369939 3.475394c-7.19903 0-11.419152-3.475394-16.632243 0s-12.412121 0-16.632242 0a196.111515 196.111515 0 0 1 12.163879 24.824242c3.475394 9.681455 11.419152 23.58303 15.887515 24.824243a102.772364 102.772364 0 0 0 58.33697-16.632243 38.229333 38.229333 0 0 1 11.419151-3.475394 158.626909 158.626909 0 0 0 30.533818-11.419151c7.19903-3.475394 9.681455-8.688485 14.894546-8.688485a45.428364 45.428364 0 0 0 19.362909-8.936727 164.088242 164.088242 0 0 0 24.824242-17.37697 127.100121 127.100121 0 0 1 32.519758-19.362909 198.593939 198.593939 0 0 1 21.845333-12.163879 19.362909 19.362909 0 0 0 11.667394-11.915636zM1650.897268 788.666182h48.903758v158.626909H1650.897268zM2568.401268 788.666182h-48.903757v158.626909h128.341333v-25.56897h-79.437576v-133.057939zM1872.825996 880.515879l-98.552243-91.849697h-28.796121v158.626909h36.491636v-101.282909l106.496 101.282909h20.604122v-158.626909h-36.243394v91.849697zM1553.83448 852.96097h-54.116848v-64.294788h-48.903758v158.626909h48.903758v-69.011394h54.116848v69.011394h48.903758v-158.626909h-48.903758v64.294788zM1998.436662 788.169697l-72.983272 159.371636h40.463515l16.135757-38.97406h69.756122l17.128727 38.97406h49.648485l-74.472728-159.371636z m-6.20606 96.318061l24.824242-57.095758 24.824243 57.095758zM2191.321026 811.256242h47.662545v135.292122h49.400243v-135.292122h45.676606v-22.341818h-142.739394v22.341818zM2403.816541 878.281697h62.557091v-24.327758h-62.557091v-42.201212h81.671758v-22.341818h-129.334303v156.889212h134.795636v-24.327757h-87.133091v-43.690667zM2728.021147 878.281697h62.557091v-24.327758h-62.557091v-42.201212h81.671758v-22.341818h-129.334303v156.889212h134.795636v-24.327757h-87.133091v-43.690667zM3398.275693 789.410909l-79.685819 112.205576-78.94109-112.205576h-36.739879v157.633939h34.257454v-91.353212l59.826425 91.353212h25.072484l65.039516-93.090909v93.090909h44.931878V789.410909h-33.760969zM3089.213874 785.687273c-52.379152 0-87.877818 27.554909-87.877818 81.671757 0 57.840485 39.470545 81.92 87.877818 81.92s88.126061-23.334788 88.126061-81.92c0.248242-45.180121-24.576-81.671758-88.126061-81.671757z m38.725819 105.751272a35.995152 35.995152 0 0 1-40.711758 34.505697c-27.803152 0-31.278545-13.901576-31.278545-13.901575a163.84 163.84 0 0 1-4.964849-58.088728c0-53.123879 37.981091-45.924848 37.981091-45.924848 32.023273-2.482424 35.498667 20.107636 35.498667 20.107636a219.694545 219.694545 0 0 1 3.475394 63.301818zM2835.510117 867.35903c0 57.840485 43.690667 81.92 97.807515 81.92a133.802667 133.802667 0 0 0 47.910788-7.695515v-24.824242a193.132606 193.132606 0 0 1-37.732849 7.447272c-38.477576 0-57.840485-16.135758-58.088727-57.095757a52.875636 52.875636 0 0 1 58.088727-58.088727 75.713939 75.713939 0 0 1 37.732849 7.695515v-24.824243a188.167758 188.167758 0 0 0-47.910788-5.213091c-58.33697-0.99297-98.304 30.037333-97.807515 80.678788zM1273.320541 867.35903c0 57.840485 43.690667 81.92 97.807515 81.92a132.561455 132.561455 0 0 0 47.662546-7.695515v-24.824242a188.416 188.416 0 0 1-37.484606 7.447272c-38.725818 0-58.088727-16.135758-58.33697-57.095757a52.875636 52.875636 0 0 1 58.33697-58.088727 74.472727 74.472727 0 0 1 37.484606 7.695515v-24.824243a186.181818 186.181818 0 0 0-47.662546-5.213091c-58.33697-0.99297-98.304 30.037333-97.807515 80.678788zM1052.881268 153.662061C1029.794723 61.564121 909.148905 7.19903 748.536056 0l14.894546 57.095758c57.344 13.156848 96.069818 38.974061 105.50303 76.210424 21.100606 84.898909-122.135273 191.891394-318.991515 241.291636-12.660364 3.227152-24.824242 5.957818-37.981091 8.440243 15.887515-137.278061 54.861576-231.858424 112.702061-231.858425a51.634424 51.634424 0 0 1 41.952969 22.590061l45.924849-12.660364c-43.690667-94.332121-105.006545-152.669091-173.769697-152.669091C431.282238 7.695515 335.21242 173.769697 309.146965 397.187879c-84.402424-8.192-143.980606-37.236364-155.896242-84.154182-16.384-65.784242 67.273697-144.477091 198.593939-198.593939-4.220121-15.142788-9.433212-32.768-12.660363-45.180122-223.418182 83.905939-365.412848 225.404121-335.127273 347.539394 23.086545 90.856727 141.001697 146.711273 299.380364 154.158546 12.908606 248.242424 113.69503 452.049455 237.319757 452.049454 106.992485 0 205.048242-154.158545 231.858424-385.768727l-77.451636 20.107636c-17.37697 119.156364-49.648485 202.069333-90.856727 201.076364-49.648485-1.489455-93.339152-133.306182-99.29697-297.890909 28.796121-4.716606 58.088727-10.922667 87.877818-18.121697 289.202424-73.231515 495.491879-246.504727 459.993212-388.747636z" fill="#005BAC" p-id="22855"></path></svg>