<?xml version="1.0" standalone="no"?><!DOCTYPE svg PUBLIC "-//W3C//DTD SVG 1.1//EN" "http://www.w3.org/Graphics/SVG/1.1/DTD/svg11.dtd"><svg t="1728988661552" class="icon" viewBox="0 0 3584 1024" version="1.1" xmlns="http://www.w3.org/2000/svg" p-id="18876" xmlns:xlink="http://www.w3.org/1999/xlink" width="896" height="256"><path d="M1844.224 169.011h-173.21V84.992h-45.593v84.02H1453.85v236.876h171.57v128.87h45.594v-128.87h173.21V169.011zM1498.419 364.11V210.765h127.002v153.344h-127.002z m301.261 0h-128.64V210.765h128.64v153.344z m151.04-264.013v420.94h396.467v-420.94H1950.72z m352.768 381.03h-310.349V141.312h310.349v339.814z" fill="#0080CB" p-id="18877"></path><path d="M2168.448 405.043v-92.262h95.59v-39.603h-95.59v-57.754h103.757v-39.552h-249.959v39.552h104.192v57.754h-96v39.603h96v92.262H2015.36v39.578h263.731v-39.578z" fill="#0080CB" p-id="18878"></path><path d="M2228.045 400.435l34.304-27.29c-17.946-20.991-50.995-57.983-50.995-57.983l-31.898 24.14c28.006 30.72 48.589 61.133 48.589 61.133z m361.216-20.813l29.107-34.099-73.498-62.49v-21.529h61.645v-39.552h-61.645v-63.565a1421.133 1421.133 0 0 1 63.104-13.721l-8.832-42.266c-37.299 12.058-161.408 25.242-161.408 25.242l6.042 41.728 57.651-9.344v61.926h-69.606v39.552h65.152c-5.095 16.333-27.546 83.635-73.011 147.174l31.897 34.586s26.496-42.522 45.543-85.786v176.948h43.392V336.998l44.467 42.624z" fill="#0080CB" p-id="18879"></path><path d="M2761.19 312.09a208.298 208.298 0 0 0 10.01-20.864l-41.062-6.656c6.144-3.456 12.21-6.99 17.945-10.83 82.458-54.169 109.594-114.79 109.594-114.79V122.7h-142.003c5.708-9.062 10.905-18.278 15.206-27.417l-41.19-16s-33.46 73.011-99.354 123.008l35.712 27.443s31.258-28.979 61.696-67.532h121.088c-16.512 26.214-40.294 48.23-66.048 66.304l-53.606-44.39-28.058 29.158 44.954 37.913c-54.861 30.208-106.957 43.853-106.957 43.853l27.443 34.56c38.912-15.078 68.506-26.7 93.9-39.885-6.758 11.674-23.96 38.349-55.5 67.303-19.456 17.817-45.21 37.12-75.494 53.12l32.358 32.435s64.41-33.152 112.051-90.675h90.701c-9.498 43.878-37.3 74.419-70.912 95.692l-48.947-47.77-30.848 25.268s27.597 26.01 42.112 41.907c-65.741 27.623-135.962 29.312-135.962 29.312l18.611 36.634c88.55-6.887 148.404-31.232 190.055-62.9 69.299-52.787 85.76-119.475 85.76-119.475v-38.553H2761.19zM2951.808 126.643h187.75v42.01h-187.75z m151.347 340.506l43.06-16.691c-9.063-21.99-52.097-117.044-52.097-117.044l-39.603 17.178c10.957 23.066 21.94 49.024 30.695 70.58-19.661 4.505-71.092 16.537-96.64 24.934 0 0 12.441-20.506 35.353-83.559 18.74-51.635 21.94-67.149 29.389-76.877h102.451v-42.01h-222.592v42.01h71.655c-3.2 13.364-15.31 60.519-34.663 106.394-10.905 26.035-22.246 51.2-37.453 69.837l10.496 32.973s112.59-34.125 156.007-38.221l3.942 10.496z" fill="#0080CB" p-id="18880"></path><path d="M3244.544 178.15l1.894-92.62h-47.257s0 41.292 0.537 92.62h-58.137v42.061h58.547c0.358 32.282-0.512 65.536-2.406 88.371-4.25 53.044-12.39 74.522-12.39 74.522-22.938 87.347-91.24 125.594-91.24 125.594l33.946 31.948c121.242-77.824 114.1-251.161 114.1-251.161l1.51-69.274h75.392l-9.062 228.762c0 28.672-27.75 27.213-27.75 27.213h-52.506l8.55 45.363h49.69c64 0 66.355-65.408 66.355-65.408l10.112-278.016h-119.885zM1911.987 702.822h35.43V881.46h-35.43z m0-71.475h35.43v39.987h-35.43z m1158.451 71.475h35.508V881.46h-35.508z m73.703-90.752h35.507v269.364h-35.507z m-73.703 19.277h35.508v39.987h-35.508z m-1237.196 68.787s-41.703-10.777-69.402 20.916V612.07h-35.533v269.364h35.533V759.27c6.246-11.801 23.578-36.07 57.293-29.465 0 0 18.765 3.046 18.765 34.432v117.222h36.019V765.39c0-0.026 4.608-53.479-42.675-65.255z m254.95 0s-43.443-11.11-71.091 23.066l-5.658-21.069h-27.059v179.277h34.253V760.704l-0.051-0.358c6.502-11.008 25.139-35.79 57.446-30.541 0 0 18.79 3.046 18.79 34.432v117.222h35.994V765.39c0.026-0.026 4.634-53.479-42.624-65.255z m171.008 3.098c-42.445-15.565-88.192 5.504-88.192 5.504v32.845s94.106-42.112 94.106 32.153l-0.359 1.792s-51.302-15.462-79.693 1.87c0 0-44.288 23.986-24.448 73.906 0 0 15.54 36.148 55.808 34.637 13.696-0.563 30.208-6.093 49.792-19.149l2.996 14.67h30.592V767.436s3.993-47.975-40.602-64.205z m4.352 132.864s-16.154 16.998-47.155 18.048c0 0-29.056-1.92-24.755-30.618 4.454-29.9 41.753-27.648 71.91-17.715v30.285zM2528 815.462l-76.211-182.937h-48.333v248.883h35.942V691.814l79.59 189.594h17.562l79.642-188.314v188.314h36.352V632.525h-47.949z m240.947-117.657a93.107 93.107 0 0 0-92.851 93.312c0 51.558 41.6 93.337 92.851 93.337a93.158 93.158 0 0 0 92.954-93.337 93.133 93.133 0 0 0-92.954-93.312z m0 155.392c-33.894 0-61.44-27.75-61.44-61.952s27.546-61.85 61.44-61.85c33.997 0 61.491 27.648 61.491 61.85s-27.494 61.952-61.49 61.952z m229.914-147.61c-45.389-21.862-77.107 9.78-77.107 9.78V613.042h-36.404V881.87h27.904l4.66-15.821c15.846 18.816 44.108 20.147 44.108 20.147 24.346 0 43.213-10.905 56.55-25.241 15.105-16.333 23.092-41.114 24.346-51.866 3.328-27.725 2.637-81.075-44.057-103.5z m-34.253 148.89c-32.538 0.742-43.238-20.122-43.238-20.122v-86.937s15.846-17.92 42.393-17.92c26.496 0 38.912 20.966 42.343 51.763 3.404 30.822-4.762 72.345-41.498 73.216z m376.78-130.227c-20.607-28.16-55.142-25.6-55.142-25.6a79.872 79.872 0 0 0-50.79 18.944c-18.995 16.563-25.088 41.164-25.088 41.164-15.693 62.746 12.595 97.076 12.595 97.076 13.85 18.713 41.651 28.492 63.488 29.772 37.99 2.33 65.741-11.392 65.741-11.392v-30.49c-110.848 38.631-112.154-41.702-112.154-41.702h119.706c1.306-38.425-7.04-62.49-18.355-77.772z m-98.15 46.617s7.348-41.37 42.701-41.37c35.303 0 36.608 41.37 36.608 41.37h-79.309z m-1662.643 79.309c-51.968 0-94.08-42.598-94.08-95.078s42.112-95.079 94.08-95.079a93.952 93.952 0 0 1 81.792 48.256h37.735a128.051 128.051 0 0 0-119.245-81.945c-70.682 0-128.051 57.523-128.051 128.563s57.37 128.614 128.05 128.614c54.887 0 101.582-34.816 119.809-83.584h-37.197a93.9 93.9 0 0 1-82.893 50.253z" fill="#0080CB" p-id="18881"></path><path d="M296.602 353.843s97.69 128.947 205.286 214.759c0 0 40.78 34.662 84.378-4.736 43.596-39.348 223.77-203.418 223.77-203.418s67.788-67.328 143.666-0.486c0 0 159.258 141.824 246.503 260.761 0 0 5.197 4.275 0.947 11.853-4.3 7.603-12.8 28.493-12.8 28.493s-95.77-123.75-206.234-215.296c0 0-43.136-32.691-80.153 1.92-36.941 34.611-212.352 194.841-240.307 215.27-27.956 20.352-73.984 41.523-139.367-16.589-50.97-45.337-184.525-171.622-237.03-251.29 0 0-4.762-4.274-0.947-12.8 4.505-10.316 12.288-28.44 12.288-28.44z" fill="#9CC715" p-id="18882"></path><path d="M316.57 314.88l55.68 61.414s6.988 8.91 20.044-2.38c13.056-11.316 184.91-178.125 250.343-224.999 37.504-26.803 77.798-44.185 122.675-47.232 33.536-2.33 69.53 1.152 108.237 18.586 41.984 18.841 105.881 70.528 165.888 132.685 42.393 43.852 84.531 92.467 119.987 139.596 23.987 31.821 46.95 63.872 64.435 91.853 0 0 0.461-38.758-17.024-71.552 0 0-70.041-134.22-206.976-260.505C986.47 140.058 869.734 23.09 756.275 25.626c0 0-105.702-5.99-202.086 73.216-15.821 13.081-184.807 158.796-237.62 216.038z" fill="#0080CB" p-id="18883"></path><path d="M436.531 444.262l63.36 61.21s14.592 11.162 31.283-4.685c0 0 60.8-59.52 112.845-107.213 49.127-44.953 98.56-91.084 117.018-104.268 0 0 79.59-82.637 181.069-2.15 0 0 137.83 108.287 273.894 293.836l4.531-21.811s5.146-18.355-7.091-34.995c0 0-106.342-156.954-237.363-269.824 0 0-65.255-69.044-148.736-86.298 0 0-69.018-16.333-134.323 34.97-32.103 25.216-101.812 90.137-159.924 145.484-54.016 51.456-96.563 95.744-96.563 95.744z m731.162 255.616l-55.68-61.388s-6.989-8.96-20.07 2.355c-13.031 11.29-184.807 178.15-250.292 224.947-37.555 26.88-77.824 44.237-122.675 47.283-33.562 2.304-69.53-1.177-108.262-18.585-41.959-18.816-105.83-70.503-165.837-132.66-42.42-43.878-84.557-92.492-120.039-139.622-23.987-31.82-46.976-63.872-64.486-91.878 0 0-0.41 38.732 17.05 71.526 0 0 70.041 134.272 207.001 260.506 13.338 12.313 130.125 129.305 243.584 126.694 0 0 105.703 6.042 202.01-73.14 15.923-13.132 184.909-158.873 237.696-216.038z" fill="#0080CB" p-id="18884"></path><path d="M1047.68 570.47l-63.36-61.184s-14.515-11.161-31.232 4.685c0 0-60.749 59.495-112.82 107.162-49.126 45.005-98.56 91.085-117.042 104.294 0 0-79.642 82.586-181.044 2.1 0 0-137.83-108.263-273.92-293.786l-4.556 21.837s-5.12 18.278 7.065 34.944c0 0 106.394 156.979 237.389 269.85 0 0 65.306 68.966 148.787 86.271 0 0 68.992 16.307 134.298-34.97 32.077-25.241 101.837-90.137 159.974-145.484 53.965-51.405 96.461-95.719 96.461-95.719z" fill="#0080CB" p-id="18885"></path></svg>